<svg xmlns="http://www.w3.org/2000/svg" viewBox="0 0 501.06 132.82">
    <defs>
        <style>.cls-1{fill:#00B5A6;}.cls-2{fill:#ff9b00;}.cls-3{fill:#fdffff;}</style>
    </defs>
    <title>Genybet_Turf</title>
    <g id="Calque_2" data-name="Calque 2">
        <g id="Calque_1-2" data-name="Calque 1">
            <path class="cls-1" d="M282.34,132.82H0L31.46,15.42C33.74,6.9,42.49,0,51,0H317.65Z"/>
            <path class="cls-2"
                  d="M450.06,132.82H282.34L317.65,0H501.06L469.6,117.41C467.32,125.92,458.57,132.82,450.06,132.82Z"/>
            <path class="cls-3"
                  d="M43.18,65.79A43.12,43.12,0,0,1,56,35.49,45.49,45.49,0,0,1,88.52,22.2c15.36,0,24.6,5.92,29.68,12.56L106.37,45.24a24.23,24.23,0,0,0-19.09-8.4,27,27,0,0,0-19.09,8,29.26,29.26,0,0,0-8.41,20.44c0,11.31,8.3,17.43,18.57,17.43a30.56,30.56,0,0,0,13-2.8l3.42-11.83H78.67l3.73-13.8H114L103.68,90.48a51.59,51.59,0,0,1-26.36,6.85C60.71,97.33,43.18,87.48,43.18,65.79Z"/>
            <path class="cls-3"
                  d="M133.66,73.78c.52,6.54,4.47,10.89,12.77,10.89,4.15,0,7.78-1.24,12.35-4.46L166,90c-5,4.15-11.93,7.36-21.38,7.36-16,0-25.73-9.34-25.73-24.69A34.29,34.29,0,0,1,129,48.87a32,32,0,0,1,22.94-9.44c14.42,0,22.72,9.34,22.72,21.69a34.23,34.23,0,0,1-2.8,12.66Zm1.46-9.86h24.17a12.46,12.46,0,0,0,.52-3.63c0-4.57-2.7-8.2-9.13-8.2a15.49,15.49,0,0,0-11.1,4.67A19.4,19.4,0,0,0,135.12,63.92Z"/>
            <path class="cls-3"
                  d="M189.59,40.47h15.78l-1.56,5.81c3.94-3.53,8.92-6.85,15.15-6.85,10,0,16.4,6.12,16.4,16.19a45.74,45.74,0,0,1-1.87,10.58l-8,29.89H209.72l8.2-30.51a22,22,0,0,0,.73-5c0-4.46-2.8-6.85-7.68-6.85-6.23,0-10.27,4.46-12,11.1l-8.4,31.24H174.75Z"/>
            <path class="cls-3"
                  d="M243.24,40.47h16.08l2.6,37.77,20.86-37.77h17l-34.45,57C258.08,108.75,251.85,113,242.41,113a21.14,21.14,0,0,1-13-3.84l8.4-11.41A11,11,0,0,0,244,99.93c2.38,0,3.94-.62,6.12-3.43Z"/>
            <path class="cls-3"
                  d="M310,88l-2.18,8.1H292.11l20.14-75.75H328l-6.95,26.15c4.77-4.47,9.44-7.06,15.67-7.06,12.14,0,21.37,8.82,21.37,23.87a34.65,34.65,0,0,1-10,24.8,29.67,29.67,0,0,1-20.75,9C318.68,97.13,313.59,93.49,310,88Zm26-8.82a20.82,20.82,0,0,0,5.91-14.84c0-7.26-4.57-11.62-11.62-11.62a15.4,15.4,0,0,0-10.79,4.78,20.35,20.35,0,0,0-6,14.52c0,7.06,5,11.83,11.93,11.83A15.26,15.26,0,0,0,335.91,79.17Z"/>
            <path class="cls-3"
                  d="M378.76,73.78c.52,6.54,4.46,10.89,12.76,10.89,4.15,0,7.79-1.24,12.35-4.46L411.14,90c-5,4.15-11.94,7.36-21.38,7.36-16,0-25.74-9.34-25.74-24.69a34.3,34.3,0,0,1,10.07-23.77A32,32,0,0,1,397,39.43c14.43,0,22.73,9.34,22.73,21.69A34.23,34.23,0,0,1,417,73.78Zm1.45-9.86h24.18a12.81,12.81,0,0,0,.52-3.63c0-4.57-2.7-8.2-9.13-8.2a15.49,15.49,0,0,0-11.1,4.67A19.43,19.43,0,0,0,380.21,63.92Z"/>
            <path class="cls-3"
                  d="M425.87,86.13a28.37,28.37,0,0,1,1-7L433.65,54H427l3.63-13.49h6.65l3.83-14.22H456.9l-3.84,14.22h13.07L462.5,54H449.43L443.2,77.31a12.2,12.2,0,0,0-.42,2.49c0,2.07,1.35,3.32,4.26,3.32a21.11,21.11,0,0,0,8.09-1.77L451.5,94.74A27.66,27.66,0,0,1,440.09,97C430.54,97,425.87,92.25,425.87,86.13Z"/>
        </g>
    </g>
</svg>
